<?xml version="1.0" encoding="utf-8"?>
<svg viewBox="160.243 129.464 164.904 215" xmlns="http://www.w3.org/2000/svg">
  <path d="M 186.625 181.824 L 186.625 129.464 L 241.194 129.464 L 241.194 155.412 L 213.439 155.412 L 213.439 181.824 L 186.625 181.824 Z" style="fill: rgb(216, 216, 216);"/>
  <path d="M 186.625 344.464 L 186.625 292.104 L 241.194 292.104 L 241.194 318.052 L 213.439 318.052 L 213.439 344.464 L 186.625 344.464 Z" style="fill: rgb(216, 216, 216);"/>
  <path d="M 295.762 129.464 L 295.762 181.824 L 241.194 181.824 L 241.194 155.876 L 268.948 155.876 L 268.948 129.464 L 295.762 129.464 Z" style="fill: rgb(216, 216, 216);"/>
  <path d="M 295.762 292.104 L 295.762 344.464 L 241.194 344.464 L 241.194 318.516 L 268.948 318.516 L 268.948 292.104 L 295.762 292.104 Z" style="fill: rgb(216, 216, 216);"/>
  <rect y="210.352" width="55.51" height="54.677" x="269.637" style="fill: rgb(216, 216, 216);"/>
  <path d="M 160.243 210.362 L 215.753 210.362 L 215.753 240.252 L 187.53 240.252 L 187.53 251.822 L 215.753 251.822 L 215.753 265.039 L 160.243 265.039 L 160.243 210.362 Z" style="fill: rgb(216, 216, 216);"/>
</svg>